# xmcd
#
# Track frame offsets:
#	150
#	19321
#	36235
#	55022
#	70606
#	90555
#	111589
#	132137
#	148497
#	165209
#
# Disc length: 2418 seconds
#
# Revision: 0
# Processed by: cddbd v1.5.1PL0 Copyright (c) Steve Scherf et al.
# Submitted via: EasyCDDAExtractor 8.0.2.1
#
DISCID=8709700a
DTITLE=Whitney Houston - Just Whitney
DYEAR=1900
DGENRE=R&B
TTITLE0=Watchulookinat
TTITLE1=Tell Me No (Featuring Santana)
TTITLE2=Love That Man
TTITLE3=Things You Say
TTITLE4=My Love (Featuring Bobby Brown)
TTITLE5=One Of Those Days
TTITLE6=On My Own
TTITLE7=Dear John Letter
TTITLE8=Unashamed
TTITLE9=You Light Up My Life
EXTD=
EXTT0=
EXTT1=
EXTT2=
EXTT3=
EXTT4=
EXTT5=
EXTT6=
EXTT7=
EXTT8=
EXTT9=
PLAYORDER=
